<svg fill='#d6d6d6' id="Capa_1" enable-background="new 0 0 512 512" height="512" viewBox="0 0 512 512" width="512" xmlns="http://www.w3.org/2000/svg"><g><path d="m256 113.031c47.136 0 86.663 33.177 96.471 77.404 32.081.424 63.633 6.122 93.992 16.968l-24.674-34.136 5.626-54.556-50.072-22.357-22.357-50.074-54.558 5.626-44.428-32.113-44.429 32.113-54.556-5.626-22.357 50.073-50.074 22.357 5.626 54.557-24.674 34.136c30.358-10.845 61.91-16.544 93.992-16.968 9.809-44.227 49.336-77.404 96.472-77.404z"/><path d="m256 205.568c21.489-7.225 43.561-11.877 65.955-13.94-8.663-28.203-34.95-48.766-65.955-48.766s-57.292 20.563-65.955 48.766c22.394 2.062 44.466 6.715 65.955 13.94z"/><path d="m144.303 364.151c31.156.246 71.887 7.227 96.782 15.311v-148.222c-57.075-17.75-118.189-15.553-174.302 6.654l-66.783 26.43v129.218c26.872-9.226 94.3-29.786 144.303-29.391z"/><path d="m270.915 231.24v148.221c24.895-8.084 50.671-13.018 76.896-14.68 33.494-2.121 66.94 1.124 99.403 9.647l64.786 16.647v-126.751l-66.783-26.429c-56.112-22.207-117.227-24.405-174.302-6.655z"/><path d="m424.813 458.802h29.831v33.405h-29.831z"/><path d="m454.644 406.53v52.272h57.356v-38.513c-13.057-3.116-38.727-9.251-57.356-13.759z"/><path d="m424.813 398.957c-85.387-21.317-168.813 17.858-168.813 17.858s-86.64-42.716-183.638-13.534l-72.362 21.347v34.174h216.051c5.229 17.1 21.16 29.574 39.949 29.574s34.72-12.474 39.949-29.574h128.864z"/></g></svg>